# xmcd
#
# Track frame offsets: 
#        150
#        25751
#        42931
#        57719
#        79546
#        103851
#        146119
#        161632
#        180442
#        199154
#        214155
#        232472
#        251417
#        276637
#        297934
#        310761
#        331274
#
# Disc length: 4777 seconds
#
# Revision: 0
# Processed by: cddbd v1.5.2PL0 Copyright (c) Steve Scherf et al.
# Submitted via: ExactAudioCopy v1.1
#
DISCID=0712a711
DTITLE=Various Artist - Akella Presents - vol.64 - Women's Blues  CD2
DYEAR=2016
DGENRE=Blues
TTITLE0=Fiona Boyes - Easy Baby
TTITLE1=Jean Shy - I Wouldn't Wanna Be You
TTITLE2=Amanda Fish Band - Watch It All Burn
TTITLE3=Mama's Blues Joint - Try Me Baby
TTITLE4=Liz Mandville - My Baby's Ner Baby Too
TTITLE5=Ronnie Earl and Diane Blue - Six String Blessing
TTITLE6=Tracy Niles - I've Got A Right
TTITLE7=Karen Carroll - Spoonful
TTITLE8=Erin McCallum - Bad Situations
TTITLE9=Quinn Sullivan - Blues Child
TTITLE10=Christine Lakeland - Listening To My Heart
TTITLE11=Deirdre Fellner - Brand New Toy
TTITLE12=Roach and Cafe R&B - My Love
TTITLE13=Ann Peebles - I Miss You
TTITLE14=Kelly Richey - Hard Workin' Woman
TTITLE15=Debbie Davies - Don't Change It Up
TTITLE16=B.J. Sharp - Top Of My Game
EXTD=
EXTT0=
EXTT1=
EXTT2=
EXTT3=
EXTT4=
EXTT5=
EXTT6=
EXTT7=
EXTT8=
EXTT9=
EXTT10=
EXTT11=
EXTT12=
EXTT13=
EXTT14=
EXTT15=
EXTT16=
PLAYORDER=
